<?xml version="1.0" encoding="UTF-8" standalone="no"?>
<svg
   xmlns:x="adobe:ns:meta/"
   xmlns:dc="http://purl.org/dc/elements/1.1/"
   xmlns:cc="http://creativecommons.org/ns#"
   xmlns:rdf="http://www.w3.org/1999/02/22-rdf-syntax-ns#"
   xmlns:svg="http://www.w3.org/2000/svg"
   xmlns="http://www.w3.org/2000/svg"
   xmlns:sodipodi="http://sodipodi.sourceforge.net/DTD/sodipodi-0.dtd"
   xmlns:inkscape="http://www.inkscape.org/namespaces/inkscape"
   width="4096"
   height="4096"
   viewBox="0 0 1365.3333 1365.3333"
   version="1.1"
   id="svg10"
   sodipodi:docname="havan-logo.svg"
   inkscape:version="0.92.4 (5da689c313, 2019-01-14)"
   inkscape:export-filename="G:\Users\suitedoalex\sites\havan-logo-0.png"
   inkscape:export-xdpi="96"
   inkscape:export-ydpi="96">
  <sodipodi:namedview
     pagecolor="#ffffff"
     bordercolor="#666666"
     borderopacity="1"
     objecttolerance="10"
     gridtolerance="10"
     guidetolerance="10"
     inkscape:pageopacity="0"
     inkscape:pageshadow="2"
     inkscape:window-width="1600"
     inkscape:window-height="837"
     id="namedview12"
     showgrid="false"
     inkscape:zoom="0.066379157"
     inkscape:cx="2578.8819"
     inkscape:cy="2110.2749"
     inkscape:window-x="-8"
     inkscape:window-y="-8"
     inkscape:window-maximized="1"
     inkscape:current-layer="svg10" />
  <metadata
     id="metadata2">
<?xpacket begin="½" id="W5M0MpCehiHzreSzNTczkc9d"?>    <x:xmpmeta
       x:xmptk="Adobe XMP Core 5.6-c140 79.160451, 2017/05/06-01:08:21        ">
      <metadata>
        <rdf:RDF>
          <rdf:Description
             rdf:about="" />
          <cc:Work
             rdf:about="">
            <dc:format>image/svg+xml</dc:format>
            <dc:type
               rdf:resource="http://purl.org/dc/dcmitype/StillImage" />
            <dc:title />
          </cc:Work>
        </rdf:RDF>
      </metadata>
    </x:xmpmeta>
<?xpacket end="w"?>  </metadata>
  <defs
     id="defs6">
    <style
       id="style4">
      .cls-1 {
        fill: #fff;
        fill-rule: evenodd;
      }
    </style>
  </defs>
  <path
     class="cls-1"
     d="m 687.69292,632.91488 c 148.66895,0 272.87036,-64.01761 270.51795,-133.57322 -2.14896,-69.28914 -121.56375,-129.0984 -270.51795,-129.0984 -149.21668,0 -272.3265,57.4322 -272.3265,129.0984 0,71.97634 123.10221,133.57322 272.3265,133.57322 m -1.03265,-250.75152 c 136.28116,0 247.84942,52.89644 249.1255,117.99228 C 936.86024,565.19449 824.2574,621.28 687.69099,621.28 550.82223,621.28 434.83435,562.30397 437.24573,498.28439 439.35474,434.26283 549.80862,382.16336 686.65838,382.16336 m -17.41597,196.82816 c -8.19071,-0.81201 -15.04448,-2.15475 -17.35508,-4.25029 -3.75023,-3.21399 -5.57589,-9.27854 -5.57589,-17.73939 v -42.82858 h 80.9354 v 42.82093 c 0,8.46085 -1.86563,14.52541 -5.31153,17.73939 -2.59584,2.09184 -9.20434,3.43828 -17.35513,4.25029 v 10.05454 h 75.62576 v -10.05454 c -8.41511,-0.81201 -15.00458,-2.1545 -17.37792,-4.25029 -3.68934,-3.21398 -5.53401,-9.27854 -5.53401,-17.73939 V 446.16592 c 0,-8.74806 1.84467,-14.54835 5.53401,-17.7621 2.37334,-2.09208 8.96281,-3.42323 17.37792,-4.18391 v -10.08858 h -75.62383 v 10.08858 c 8.15075,0.77401 14.75925,2.09183 17.3551,4.18391 3.44592,3.21375 5.3115,9.01207 5.3115,17.7621 v 42.88187 h -80.93536 v -42.88187 c 0,-8.74806 1.82565,-14.54835 5.57586,-17.7621 2.31061,-2.09208 9.16439,-3.42323 17.3551,-4.18391 v -10.08858 h -75.64287 v 10.08858 c 8.15079,0.77401 15.0236,2.09183 17.37604,4.18391 3.68932,3.21375 5.51497,9.01207 5.51497,17.7621 v 110.82827 c 0,8.46085 -1.82375,14.52541 -5.51497,17.73939 -2.35244,2.09184 -9.22525,3.43828 -17.37604,4.25029 v 10.05454 h 75.64287 V 578.98387 Z M 177.29375,909.65145 c -2.89822,2.64332 -11.06992,4.49753 -21.12431,5.5321 v 12.17107 h 92.34757 v -12.17107 c -10.0563,-1.03457 -18.24701,-2.88878 -21.16426,-5.5321 -4.50137,-3.70081 -6.56854,-10.83988 -6.56854,-21.40189 v -52.14338 h 98.85529 v 52.13765 c 0,10.56014 -2.39239,17.70119 -6.84621,21.402 -2.89632,2.64331 -11.09085,4.49752 -21.06346,5.53209 v 12.17097 h 92.2449 v -12.17097 c -10.03538,-1.03457 -18.14435,-2.88878 -21.08249,-5.53209 -4.50139,-3.70081 -6.6313,-10.83988 -6.6313,-21.402 V 753.53345 c 0,-10.54139 2.12991,-17.69942 6.6313,-21.67956 2.93814,-2.60549 11.04711,-4.47679 21.08249,-5.24881 v -12.22629 h -92.25252 v 12.22629 c 9.97263,0.77202 18.16716,2.64332 21.06348,5.24881 4.46142,3.99347 6.84618,11.14588 6.84618,21.67956 v 51.85218 h -98.84766 v -51.85218 c 0,-10.54139 2.06717,-17.69942 6.56854,-21.67956 2.91725,-2.60549 11.10796,-4.47679 21.16426,-5.24881 v -12.22629 h -92.34757 v 12.22629 c 10.05439,0.77202 18.22609,2.64332 21.12431,5.24881 4.50138,3.99347 6.89564,11.14588 6.89564,21.67956 v 134.71038 c 0,10.56014 -2.39426,17.70119 -6.89564,21.402 M 511.04581,714.37139 435.3573,888.24383 c -4.46016,10.55962 -9.71079,17.69348 -15.75195,21.402 -4.23704,2.64331 -13.21884,4.49752 -23.80383,5.53209 v 12.17097 h 92.31905 v -12.17097 c -9.48959,-1.03457 -16.86826,-2.88878 -18.69392,-5.53209 -2.95908,-3.70081 -1.90171,-10.83988 2.59585,-21.402 l 7.41671,-16.69912 h 71.73102 l 7.05539,16.69912 c 4.48045,10.56014 5.57394,17.70119 2.90013,21.402 -2.10901,2.64331 -9.20433,4.49752 -18.93733,5.53209 l -0.28338,12.17097 h 92.53208 v -12.17097 c -10.56407,-1.03457 -19.44512,-2.88878 -23.45775,-5.53209 -6.0627,-3.70081 -11.57769,-10.83988 -16.07715,-21.402 L 519.21371,714.37139 h -8.1774 z m -18.42957,126.49476 c 7.64492,-17.45385 15.02359,-34.64557 22.60576,-51.85615 7.41672,17.21058 15.08256,34.4023 22.46313,51.85615 H 492.61435 Z M 650.22709,726.59737 v -12.22598 h -92.20685 v 12.22598 c 10.50319,0.77213 19.20738,2.64332 23.41589,5.24892 6.04178,3.99368 11.35518,11.14577 16.07715,21.67945 l 75.68851,173.81752 h 8.1907 l 75.41848,-173.81752 c 4.44243,-10.54108 9.69878,-17.69911 15.75386,-21.67945 4.23703,-2.60539 13.19795,-4.47679 23.49576,-5.24892 v -12.22598 h -92.31144 l 0.24525,12.22598 c 9.54854,0.77213 16.92534,2.64353 18.73387,5.24892 2.66241,3.99368 1.86368,11.14577 -2.61677,21.67945 -11.84011,26.74979 -23.69925,54.00905 -35.07344,81.01337 l -5.55494,12.67116 -2.31059,5.29049 -2.15083,-5.29049 -5.51501,-12.67116 c -11.85912,-27.00432 -23.72015,-54.25796 -35.33588,-81.01337 -4.7543,-10.54108 -5.57584,-17.69911 -2.90012,-21.67945 1.84467,-2.60539 9.24426,-4.47679 18.95634,-5.24892 m 221.18921,188.58055 v 12.17097 h 92.34949 v -12.17097 c -10.60399,-1.03457 -19.24161,-2.88878 -23.49767,-5.53209 -6.0627,-3.70081 -11.31332,-10.83988 -16.09807,-21.402 L 848.77056,714.37139 h -8.36759 L 764.9636,888.24383 c -4.7543,10.56014 -10.0582,17.70119 -16.09808,21.402 -4.19898,2.64331 -12.93169,4.49752 -23.47864,5.53209 v 12.17097 h 92.2639 v -12.17097 c -9.71208,-1.03457 -17.11549,-2.88878 -18.9982,-5.53209 -6.3042,-8.74813 6.12355,-28.82654 10.07912,-38.10112 h 71.69491 c 3.93465,9.27458 16.34148,29.35497 10.01445,38.10112 -1.86368,2.64331 -9.20242,4.49752 -19.01719,5.53209 m -49.2546,-74.31177 c 7.35966,-17.45385 15.02361,-34.64557 22.46315,-51.85615 7.56122,17.21058 14.98366,34.4023 22.60576,51.85615 h -45.07081 z m 173.20304,68.7853 c -2.8792,2.64332 -10.2693,4.49753 -19.50402,5.5321 v 12.17107 h 84.86061 v -12.17107 c -9.2234,-1.03457 -16.8683,-2.88878 -19.4623,-5.5321 -4.256,-3.70081 -6.1026,-10.83988 -6.1026,-21.40189 V 781.11787 c 38.0154,48.41789 78.8263,96.2841 114.4056,146.22519 h 34.0409 V 753.52574 c 0,-10.54128 2.0918,-17.69942 6.0627,-21.67945 2.881,-2.6056 10.2578,-4.47679 19.4831,-5.24892 v -12.22598 h -84.8606 v 12.22598 c 9.2234,0.77213 16.8683,2.64332 19.4813,5.24892 3.9556,3.99337 6.1045,11.14577 6.1045,21.67945 v 120.92483 c -41.9272,-53.45926 -83.8944,-106.57824 -125.8007,-160.07918 h -48.21246 v 12.22598 c 9.22527,0.77213 16.62487,2.64332 19.50407,5.24892 3.9727,3.99368 6.10449,11.14577 6.10449,21.67945 v 134.71048 c 0,10.56004 -2.13179,17.70109 -6.10449,21.4019 M 138.77439,686.35709 H 1226.5589 V 646.38276 H 138.77439 Z m 0,308.73295 H 1226.5589 V 955.11398 H 138.77439 Z"
     id="path8"
     style="fill:#00275e;fill-opacity:1;fill-rule:evenodd;stroke-width:1.90172124"
     inkscape:connector-curvature="0"
     sodipodi:nodetypes="ccsscccsccccsccsccccccssccccccsccsccccccssccccccccccccsccsccccccssccccccsccsccccccssccccccccccccccccccccccccccccccccccccccccccccccccccccccccccccccccccccccccccccccccccscccsccccccscccccssccccccccccc"
     inkscape:export-filename="G:\Users\suitedoalex\sites\havan-logo-6.png"
     inkscape:export-xdpi="11.767036"
     inkscape:export-ydpi="11.767036" />
  <path
     inkscape:connector-curvature="0"
     class="cls-1"
     d="m 2324.2425,515.45448 c 169.0521,0 310.282,-72.79472 307.607,-151.8865 -2.4435,-78.78904 -138.2306,-146.79824 -307.607,-146.79824 -169.6747,0 -309.6634,65.30613 -309.6634,146.79824 0,81.84459 139.98,151.8865 309.6634,151.8865 m -1.1742,-285.13047 c 154.9658,0 281.8306,60.14867 283.2816,134.1695 1.2217,73.95595 -126.8194,137.73107 -282.1096,137.73107 -155.6339,0 -287.5242,-67.06205 -284.7822,-139.85892 2.3982,-72.79904 127.9957,-132.04165 283.608,-132.04165 m -19.8037,223.81406 c -9.3137,-0.92336 -17.1072,-2.45006 -19.7346,-4.83308 -4.2644,-3.65455 -6.3403,-10.55062 -6.3403,-20.17138 v -48.70064 h 92.0319 v 48.69199 c 0,9.62076 -2.1214,16.51683 -6.0397,20.17138 -2.9518,2.3787 -10.4663,3.90972 -19.7346,4.83308 v 11.4329 h 85.9943 v -11.4329 c -9.5688,-0.92336 -17.0617,-2.45006 -19.7605,-4.83308 -4.1951,-3.65455 -6.2927,-10.55062 -6.2927,-20.17138 V 303.10142 c 0,-9.94729 2.0976,-16.54278 6.2927,-20.19733 2.6988,-2.3787 10.1917,-3.89242 19.7605,-4.7574 v -11.47182 h -85.9921 v 11.47182 c 9.2682,0.88012 16.7828,2.3787 19.7345,4.7574 3.9184,3.65455 6.0398,10.24788 6.0398,20.19733 v 48.76119 h -92.032 v -48.76119 c 0,-9.94729 2.076,-16.54278 6.3404,-20.19733 2.6273,-2.3787 10.4208,-3.89242 19.7345,-4.7574 v -11.47182 h -86.0137 v 11.47182 c 9.2683,0.88012 17.0834,2.3787 19.7584,4.7574 4.1951,3.65455 6.2711,10.24788 6.2711,20.19733 v 126.02354 c 0,9.62076 -2.0738,16.51683 -6.2711,20.17138 -2.675,2.3787 -10.4901,3.90972 -19.7584,4.83308 v 11.4329 h 86.0137 v -11.4329 z m -559.3967,375.99465 c -3.2956,3.0058 -12.5877,5.1142 -24.0206,6.2906 v 13.8397 h 105.0089 v -13.8397 c -11.4351,-1.1764 -20.7488,-3.2848 -24.066,-6.2906 -5.1185,-4.2081 -7.4691,-12.326 -7.4691,-24.3363 v -59.2923 h 112.4087 v 59.2859 c 0,12.0081 -2.7203,20.1281 -7.7848,24.3362 -3.2935,3.0058 -12.6115,5.1142 -23.9514,6.2906 v 13.8397 h 104.892 v -13.8397 c -11.4112,-1.1764 -20.6319,-3.2848 -23.9729,-6.2906 -5.1185,-4.2081 -7.5405,-12.326 -7.5405,-24.3362 V 652.61034 c 0,-11.98649 2.422,-20.12597 7.5405,-24.65199 3.341,-2.96256 12.5617,-5.09042 23.9729,-5.96837 v -13.90243 h -104.9006 v 13.90243 c 11.3399,0.87795 20.6579,3.00581 23.9514,5.96837 5.0731,4.54116 7.7848,12.67415 7.7848,24.65199 v 58.96149 h -112.4001 v -58.96149 c 0,-11.98649 2.3506,-20.12597 7.4691,-24.65199 3.3172,-2.96256 12.6309,-5.09042 24.066,-5.96837 v -13.90243 h -105.0089 v 13.90243 c 11.4329,0.87795 20.725,3.00581 24.0206,5.96837 5.1185,4.54116 7.8411,12.67415 7.8411,24.65199 v 153.17968 c 0,12.0081 -2.7226,20.1281 -7.8411,24.3362 m 379.5108,-222.04732 -86.0657,197.71112 q -7.6075,18.011 -17.9116,24.3362 c -4.818,3.0058 -15.0312,5.1142 -27.0675,6.2906 v 13.8397 h 104.9764 v -13.8397 c -10.7906,-1.1764 -19.181,-3.2848 -21.2569,-6.2906 -3.3648,-4.2081 -2.1625,-12.326 2.9517,-24.3362 l 8.4336,-18.9886 h 81.5656 l 8.0227,18.9886 c 5.0948,12.0081 6.3382,20.1281 3.2978,24.3362 -2.3982,3.0058 -10.4663,5.1142 -21.5337,6.2906 l -0.3222,13.8397 h 105.2185 v -13.8397 c -12.0124,-1.1764 -22.1111,-3.2848 -26.6739,-6.2906 -6.8939,-4.2081 -13.165,-12.326 -18.2814,-24.3362 L 2132.6642,608.0789 h -9.2985 z m -20.9563,143.83782 c 8.693,-19.84698 17.0834,-39.39558 25.7051,-58.96579 8.4335,19.57021 17.1504,39.11881 25.5429,58.96579 H 2102.418 Z M 2281.64,621.98133 V 608.0789 h -104.8487 v 13.90243 c 11.9432,0.87795 21.8408,3.00581 26.6263,5.96837 6.8701,4.54116 12.912,12.67415 18.2814,24.65199 l 86.0656,197.64833 h 9.3137 l 85.7586,-197.64833 c 5.0515,-11.98649 11.0285,-20.12597 17.9138,-24.65199 4.8179,-2.96256 15.0074,-5.09042 26.7171,-5.96837 V 608.0789 h -104.9677 l 0.279,13.90243 c 10.8576,0.87795 19.2458,3.00581 21.3023,5.96837 3.0274,4.54116 2.1192,12.67415 -2.9755,24.65199 -13.4635,30.41708 -26.9485,61.41371 -39.8822,92.12053 l -6.3165,14.4085 -2.6274,6.0159 -2.4457,-6.0159 -6.2712,-14.4085 c -13.485,-30.70682 -26.9723,-61.69696 -40.1804,-92.12053 -5.4062,-11.98649 -6.3403,-20.12597 -3.2978,-24.65199 2.0976,-2.96256 10.5117,-5.09042 21.5553,-5.96837 m 251.5151,214.43549 v 13.8397 h 105.011 v -13.8397 c -12.0579,-1.1764 -21.8798,-3.2848 -26.7193,-6.2906 -6.8939,-4.2081 -12.8645,-12.326 -18.3052,-24.3362 l -85.737,-197.71112 h -9.5148 l -85.7824,197.71112 c -5.4062,12.0081 -11.4373,20.1281 -18.3052,24.3362 -4.7747,3.0058 -14.7047,5.1142 -26.6977,6.2906 v 13.8397 h 104.9137 v -13.8397 c -11.0437,-1.1764 -19.4621,-3.2848 -21.603,-6.2906 -7.1685,-9.9473 6.9631,-32.7785 11.4611,-43.3248 h 81.5245 c 4.4741,10.5463 18.582,33.3797 11.3875,43.3248 -2.1192,3.0058 -10.4641,5.1142 -21.6246,6.2906 m -56.0075,-84.5001 c 8.3687,-19.84698 17.0834,-39.39558 25.5429,-58.96579 8.5979,19.57021 17.038,39.11881 25.7051,58.96579 h -51.2502 z m 196.9499,78.216 c -3.274,3.0058 -11.6773,5.1142 -22.1782,6.2906 v 13.8397 h 96.4952 v -13.8397 c -10.4879,-1.1764 -19.1809,-3.2848 -22.1305,-6.2906 -4.8396,-4.2081 -6.9393,-12.326 -6.9393,-24.3363 V 683.97674 c 43.2274,55.0561 89.6337,109.48508 130.0911,166.27328 h 38.7079 V 652.60169 c 0,-11.98649 2.3787,-20.12597 6.8939,-24.65199 3.2761,-2.96256 11.6643,-5.09042 22.1544,-5.96837 V 608.0789 h -96.4952 v 13.90243 c 10.4879,0.87795 19.1809,3.00581 22.1521,5.96837 4.4979,4.54116 6.9415,12.67415 6.9415,24.65199 V 790.10572 C 2802.1234,729.31693 2754.4023,668.91524 2706.7505,608.0789 h -54.8226 v 13.90243 c 10.4901,0.87795 18.9042,3.00581 22.1782,5.96837 4.5173,4.54116 6.9414,12.67415 6.9414,24.65199 v 153.17963 c 0,12.0081 -2.4241,20.1281 -6.9414,24.3363 M 1700.0652,576.22378 h 1236.924 v -45.4548 h -1236.924 z m 0,351.06154 h 1236.924 v -45.4569 h -1236.924 z m 747.2275,132.96718 a 9.514801,9.514801 0 1 1 9.465,9.7656 9.3309923,9.3309923 0 0 1 -9.465,-9.7656 z m 88.8163,4.9996 a 60.271939,60.271939 0 0 1 -24.2195,4.7574 c -24.3838,0 -40.2087,-15.7751 -40.2087,-37.6008 0,-23.1382 17.1569,-39.45178 43.2491,-39.45178 a 50.739839,50.739839 0 0 1 21.471,4.4266 l -3.2155,10.50298 a 37.626713,37.626713 0 0 0 -18.1647,-4.0351 c -18.5754,0 -29.1607,12.0751 -29.1174,27.5972 0,16.9666 12.4838,27.4848 28.5833,27.4848 a 46.674424,46.674424 0 0 0 19.1226,-4.0373 z m 85.218,-34.675 c 0,26.7777 -20.9174,39.441 -40.8704,39.441 -22.3489,0 -39.415,-15.3534 -39.415,-37.817 0,-23.8259 17.6737,-39.23548 40.719,-39.23548 23.9859,0 39.5664,16.31138 39.5664,37.61148 z m -65.97,1.1245 c 0,17.4186 11.6773,28.0903 25.6511,28.0903 13.8397,0 26.0056,-10.2284 26.0056,-28.6223 0,-12.806 -7.7243,-27.9821 -25.5753,-27.9821 -17.5938,0 -26.0814,13.7035 -26.0814,28.5141 z m 78.4149,-16.7979 c 0,-7.3372 -0.1967,-13.9695 -0.6119,-20.12168 h 12.153 l 0.7503,12.75848 h 0.4001 a 28.010277,28.010277 0 0 1 25.6035,-14.56628 23.897288,23.897288 0 0 1 22.6473,15.88968 h 0.3071 a 32.134078,32.134078 0 0 1 8.7125,-9.94728 27.729158,27.729158 0 0 1 18.3074,-5.951 c 9.8348,0 26.6501,6.0159 26.6501,33.81638 v 41.4132 h -13.6235 v -40.0292 c 0,-15.76 -6.5803,-23.8951 -17.9786,-23.8951 a 19.340995,19.340995 0 0 0 -19.0448,19.0728 v 44.8515 h -13.6234 v -42.6804 c 0,-12.9012 -6.4723,-21.2439 -17.1224,-21.2439 -9.558,0 -16.1838,7.4756 -18.7073,13.7899 a 19.029602,19.029602 0 0 0 -1.1937,6.6777 v 43.4653 h -13.6235 v -53.3001 z m 128.785,45.3488 a 9.514801,9.514801 0 1 1 9.4651,9.7656 9.3288299,9.3288299 0 0 1 -9.4651,-9.7656 z m 29.8744,7.9427 c 0.4151,-5.3261 0.6119,-12.326 0.6119,-19.3907 v -89.29428 h 13.9479 v 48.11028 h 0.307 c 5.0213,-8.57408 14.6139,-14.65488 28.445,-14.65488 20.6622,0 34.9906,15.84208 34.8977,37.45798 0,26.2652 -18.7334,39.5945 -36.9499,39.5945 -11.6146,0 -21.6829,-4.0394 -28.1746,-14.7046 h -0.3049 l -0.6488,12.8839 h -12.14 z m 14.5598,-30.5944 a 22.113262,22.113262 0 0 0 0.5838,4.9325 23.841064,23.841064 0 0 0 23.2378,16.5731 c 15.7232,0 25.6964,-10.9074 25.6964,-28.1898 0,-14.7652 -9.0823,-27.2685 -25.1018,-27.2685 a 24.003248,24.003248 0 0 0 -23.5123,17.5159 19.678338,19.678338 0 0 0 -0.9039,5.7175 v 10.7258 z m 76.0881,-18.6469 c 0,-9.4931 -0.1535,-16.9125 -0.612,-24.17188 h 12.2287 l 0.493,15.37718 h 0.4974 c 3.8124,-10.81218 12.6006,-17.19358 22.3187,-17.19358 a 15.902692,15.902692 0 0 1 4.1627,0.4519 v 12.76928 a 23.43236,23.43236 0 0 0 -5.298,-0.4887 c -10.1635,0 -17.2326,7.175 -19.2653,17.6737 a 32.179489,32.179489 0 0 0 -0.5817,6.0873 v 38.7361 h -13.9435 z m -596.2126,100.7056 a 5.2699023,5.2699023 0 0 0 7.4151,0 l 30.3219,-30.562 18.1755,31.1999 a 5.2612525,5.2612525 0 0 0 9.411,-0.6747 l 23.1901,-99.4275 a 5.2396279,5.2396279 0 0 0 -6.7339,-7.0064 l -102.6862,21.2786 a 5.2201658,5.2201658 0 0 0 -0.3979,9.2596 l 31.429,17.9916 -30.3067,30.5512 a 5.1682669,5.1682669 0 0 0 0,7.3653 z m 22.3793,-55.3589 a 5.2201658,5.2201658 0 0 0 1.5461,-3.6762 6.3900538,6.3900538 0 0 0 -0.045,-0.7028 5.2309781,5.2309781 0 0 0 -2.5776,-3.8037 l -25.3397,-14.4322 80.8412,-17.2672 -17.0834,78.3652 -16.2681,-24.665 a 5.3239636,5.3239636 0 0 0 -3.9076,-2.6339 5.2634149,5.2634149 0 0 0 -4.3941,1.477 l -31.4421,31.6756 -12.7757,-12.6633 z m 98.3463,-82.97988 a 5.2504402,5.2504402 0 0 0 -3.7151,-1.5267 v 0 a 5.2201658,5.2201658 0 0 0 -3.7022,1.5267 l -15.455,15.321 a 5.1704294,5.1704294 0 0 0 0,7.35238 5.4061369,5.4061369 0 0 0 7.4215,0 l 15.4508,-15.31888 a 5.1898914,5.1898914 0 0 0 0,-7.348 z m -46.8604,-20.0221 a 5.2309781,5.2309781 0 0 0 -5.2462,5.205 v 21.6656 a 5.2439528,5.2439528 0 0 0 10.4858,0 v -21.6591 a 5.2266532,5.2266532 0 0 0 -5.2396,-5.205 z m -22.6691,32.1708 -15.4507,-15.3253 a 5.2763896,5.2763896 0 0 0 -7.4151,0 5.1747543,5.1747543 0 0 0 0,7.3523 l 15.4508,15.32098 a 5.378025,5.378025 0 0 0 7.415,0 5.163942,5.163942 0 0 0 0,-7.34148 z m 84.4785,29.12178 h -21.8624 a 5.2050286,5.2050286 0 1 0 0,10.4079 h 21.8408 a 5.2050286,5.2050286 0 1 0 0.022,-10.4079 z m -34.5993,35.0318 15.4486,15.3231 a 5.2720647,5.2720647 0 0 0 7.4172,0 5.1747543,5.1747543 0 0 0 0,-7.3523 l -15.4486,-15.321 a 5.282877,5.282877 0 0 0 -7.4172,0 5.1747543,5.1747543 0 0 0 -0.022,7.3502 z"
     id="path8-9"
     style="fill:#00275e;fill-opacity:1;fill-rule:evenodd;stroke-width:2.16245484"
     inkscape:export-filename="G:\Users\suitedoalex\sites\havan-logo-5.png"
     inkscape:export-xdpi="18.10944"
     inkscape:export-ydpi="18.10944" />
</svg>
